<svg xmlns="http://www.w3.org/2000/svg" viewBox="0 0 512 512">
  <defs>
    <linearGradient id="bg" x1="0" y1="0" x2="1" y2="1">
      <stop offset="0%" stop-color="#10202d" />
      <stop offset="100%" stop-color="#0f1720" />
    </linearGradient>
    <linearGradient id="accent" x1="0" y1="0" x2="1" y2="1">
      <stop offset="0%" stop-color="#ee6c4d" />
      <stop offset="100%" stop-color="#2a9d8f" />
    </linearGradient>
    <filter id="softGlow" x="-20%" y="-20%" width="140%" height="140%">
      <feDropShadow dx="0" dy="18" stdDeviation="18" flood-color="#2a9d8f" flood-opacity="0.16" />
    </filter>
  </defs>
  <rect width="512" height="512" rx="128" fill="url(#bg)" />
  <circle cx="126" cy="132" r="86" fill="#ee6c4d" opacity="0.22" />
  <circle cx="390" cy="396" r="112" fill="#2a9d8f" opacity="0.2" />
  <g filter="url(#softGlow)">
    <path
      d="M320 118c-21-19-46-28-76-28-25 0-47 5-64 14-22 12-33 29-33 52 0 17 7 31 20 42 12 10 30 18 56 26l32 9c13 4 23 8 28 11 8 5 12 11 12 20 0 10-5 18-14 24-10 6-22 8-38 8-17 0-32-4-45-11-13-8-22-18-29-31l-43 25c9 21 24 37 44 48 21 11 45 17 73 17 18 0 35-3 52-8 17-5 31-12 43-23 18-15 27-36 27-62 0-19-7-34-21-46-12-11-30-20-55-27l-38-10c-15-4-25-8-31-12-8-5-12-11-12-20 0-10 4-17 12-23 9-6 20-8 34-8 14 0 27 3 38 10 11 6 19 15 25 25z"
      fill="url(#accent)"
      transform="translate(-20 -18)"
    />
  </g>
  <path
    d="M320 118c-21-19-46-28-76-28-25 0-47 5-64 14-22 12-33 29-33 52 0 17 7 31 20 42 12 10 30 18 56 26l32 9c13 4 23 8 28 11 8 5 12 11 12 20 0 10-5 18-14 24-10 6-22 8-38 8-17 0-32-4-45-11-13-8-22-18-29-31l-43 25c9 21 24 37 44 48 21 11 45 17 73 17 18 0 35-3 52-8 17-5 31-12 43-23 18-15 27-36 27-62 0-19-7-34-21-46-12-11-30-20-55-27l-38-10c-15-4-25-8-31-12-8-5-12-11-12-20 0-10 4-17 12-23 9-6 20-8 34-8 14 0 27 3 38 10 11 6 19 15 25 25z"
    fill="none"
    stroke="rgba(246,239,227,0.76)"
    stroke-width="18"
    stroke-linejoin="round"
    transform="translate(18 20)"
  />
</svg>
